<svg width="110" height="110" viewBox="0 0 110 110" fill="none" xmlns="http://www.w3.org/2000/svg">
<path d="M8.8825 85.195C10.2758 87.2549 11.8249 89.2441 13.53 91.1625C14.3457 92.0882 15.1982 92.9957 16.0875 93.885C26.8308 104.628 39.8017 110 55 110C70.18 110 83.1325 104.628 93.8575 93.885C94.7616 92.984 95.6232 92.0674 96.4425 91.135C98.1522 89.2175 99.6922 87.2284 101.062 85.1675C107.021 76.3537 110 66.2978 110 55C110 39.82 104.619 26.8583 93.8575 16.115C83.1325 5.37167 70.18 0 55 0C39.8017 0 26.8308 5.37167 16.0875 16.115C5.3625 26.8583 0 39.82 0 55C0 66.3046 2.96083 76.3696 8.8825 85.195Z" fill="#CE5240"/>
<path d="M73.7549 14.85C71.9033 13.9883 69.9966 13.2642 68.035 12.6775C64.3632 11.5975 60.4765 11.0017 56.375 10.89C56.2699 10.8855 56.1599 10.8763 56.0449 10.8625C55.8524 10.8671 55.66 10.8671 55.4675 10.8625C55.3499 10.863 55.2308 10.863 55.11 10.8625C55.0733 10.8625 55.0366 10.8625 55 10.8625C54.7195 10.8636 54.4353 10.8636 54.1475 10.8625C53.9408 10.8756 53.7299 10.8848 53.5149 10.89C50.7512 11.2108 47.9829 11.5317 45.21 11.8525C37.2395 13.6263 30.172 17.5955 24.0074 23.76C15.4274 32.34 11.1375 42.6983 11.1375 54.835C11.1375 55.2947 11.1375 55.753 11.1375 56.21C11.2588 60.283 11.8638 64.1422 12.9524 67.7875C13.5208 69.7308 14.245 71.6375 15.125 73.5075C17.2516 78.0175 20.2124 82.17 24.0074 85.965C32.6058 94.5633 42.9733 98.8533 55.11 98.835C67.265 98.835 77.6325 94.545 86.2125 85.965C94.8108 77.3666 99.1008 66.9992 99.0825 54.8625C99.1191 42.7258 94.8383 32.3583 86.2399 23.76C82.4266 19.9467 78.2649 16.9767 73.7549 14.85Z" fill="#CE5240"/>
<path d="M29.6724 12.265C25.6207 10.3767 21.9724 10.835 18.7274 13.64C17.8657 14.4283 17.0499 15.2258 16.2799 16.0325C15.5282 16.7842 14.804 17.545 14.1074 18.315C11.1924 21.6333 10.6882 25.3092 12.5949 29.3425C7.93819 36.8958 5.60986 45.4025 5.60986 54.8625C5.60986 59.8492 6.26069 64.5791 7.56236 69.0525C9.81736 76.7891 14.0065 83.7192 20.1299 89.8425C25.3223 95.035 31.0973 98.8208 37.4549 101.2C39.4119 101.81 41.3644 102.415 43.3124 103.015C44.2886 103.226 45.2603 103.427 46.2274 103.62C47.2061 103.785 48.1961 103.922 49.1974 104.032C51.104 104.234 53.0657 104.335 55.0824 104.335C55.1786 104.335 55.2703 104.335 55.3574 104.335C56.8151 104.328 58.2452 104.273 59.6474 104.17C61.0315 103.991 62.4157 103.808 63.7999 103.62C65.1428 103.336 66.4811 103.042 67.8148 102.74C72.357 101.616 76.6287 99.8286 80.6298 97.3775C81.0509 97.5755 81.4634 97.7405 81.8673 97.8725C85.4073 99.1271 88.6706 98.4579 91.6574 95.865C93.2707 94.435 94.8198 92.8858 96.3048 91.2175C98.824 88.3033 99.4565 85.0675 98.2024 81.51C98.063 81.1145 97.898 80.7111 97.7074 80.3C102.238 72.8393 104.53 64.4151 104.582 55.0275C104.582 54.9696 104.582 54.9055 104.582 54.835C104.582 52.8183 104.482 50.8475 104.28 48.9225C103.07 37.7758 98.349 28.0867 90.1173 19.855C83.994 13.7317 77.0549 9.54249 69.2999 7.28749C64.8082 6.02249 60.0782 5.38082 55.1099 5.36249C45.6499 5.38082 37.1707 7.68166 29.6724 12.265ZM68.0349 12.6775C69.9965 13.2642 71.9032 13.9883 73.7548 14.85C78.2648 16.9767 82.4265 19.9467 86.2399 23.76C94.8382 32.3583 99.119 42.7258 99.0824 54.8625C99.1007 66.9992 94.8107 77.3666 86.2124 85.965C77.6324 94.545 67.2649 98.835 55.1099 98.835C42.9732 98.8533 32.6057 94.5633 24.0074 85.965C20.2124 82.17 17.2515 78.0175 15.1249 73.5075C14.2449 71.6375 13.5207 69.7308 12.9524 67.7875C11.8637 64.1422 11.2587 60.283 11.1374 56.21C11.1374 55.753 11.1374 55.2947 11.1374 54.835C11.1374 42.6983 15.4274 32.34 24.0074 23.76C30.1719 17.5955 37.2394 13.6263 45.2099 11.8525C47.9828 11.5317 50.7511 11.2108 53.5149 10.89C53.7298 10.8848 53.9407 10.8756 54.1474 10.8625C54.4353 10.8636 54.7194 10.8636 54.9999 10.8625C55.0365 10.8625 55.0732 10.8625 55.1099 10.8625C55.2307 10.863 55.3498 10.863 55.4674 10.8625C55.6599 10.8671 55.8524 10.8671 56.0449 10.8625C56.1598 10.8763 56.2698 10.8855 56.3749 10.89C60.4764 11.0017 64.3631 11.5975 68.0349 12.6775Z" fill="white"/>
<path d="M38.5276 84.5625C38.677 84.6297 38.8237 84.6389 38.9676 84.59L85.2501 67.7325C85.39 67.6788 85.4909 67.578 85.5526 67.43C85.6201 67.2992 85.6292 67.1617 85.5801 67.0175C85.5266 66.8777 85.4258 66.7769 85.2776 66.715C85.1465 66.6477 85.009 66.6385 84.8651 66.6875L38.5826 83.545C38.4426 83.5987 38.3418 83.6904 38.2801 83.82C38.2126 83.9692 38.2035 84.1158 38.2526 84.26C38.3061 84.3998 38.3978 84.5006 38.5276 84.5625ZM80.8501 80.1625C80.9051 79.8875 80.9326 79.6033 80.9326 79.31C80.9143 78.7233 80.7768 78.0725 80.5201 77.3575C80.3918 76.9908 80.2268 76.6792 80.0251 76.4225C79.8234 76.1658 79.5943 75.955 79.3376 75.79C78.6959 75.405 77.9718 75.3592 77.1651 75.6525C76.4501 75.9275 76.0284 76.4225 75.9001 77.1375L75.7626 76.23L73.7826 77.165L75.2951 86.5975L77.7426 85.4425L77.3576 83.16C77.5409 83.1967 77.8618 83.1325 78.3201 82.9675L79.6676 82.17C80.0709 81.8033 80.3826 81.3817 80.6026 80.905C80.6943 80.6483 80.7768 80.4008 80.8501 80.1625ZM76.9726 76.615C77.1376 76.5417 77.2934 76.5508 77.4401 76.6425C77.5684 76.7342 77.7059 76.9817 77.8526 77.385C77.9809 77.77 78.0909 78.1733 78.1826 78.595C78.3293 79.31 78.4301 79.9058 78.4851 80.3825C78.5401 80.8775 78.5401 81.2625 78.4851 81.5375C78.4668 81.7392 78.4118 81.895 78.3201 82.005C78.2284 82.1517 78.0726 82.2617 77.8526 82.335C77.6509 82.4083 77.4309 82.3992 77.1926 82.3075L76.5326 78.4575C76.3309 77.4125 76.4776 76.7983 76.9726 76.615ZM73.0401 83.1325L72.9026 82.6925L72.0501 77.5225L70.0151 78.5125C69.6668 78.4758 69.2818 78.5308 68.8601 78.6775C67.6868 79.1175 66.8801 79.8417 66.4401 80.85C66.2201 81.345 66.1101 81.8858 66.1101 82.4725C66.0918 82.7475 66.1193 83.0225 66.1926 83.2975L66.3851 84.15C66.5868 84.7 66.7976 85.1308 67.0176 85.4425C67.2376 85.7542 67.4759 85.9833 67.7326 86.13C68.0076 86.2583 68.3193 86.3225 68.6676 86.3225C68.9976 86.3042 69.3551 86.2308 69.7401 86.1025C70.1068 85.9558 70.4184 85.7725 70.6751 85.5525C70.8951 85.2958 71.0326 85.0392 71.0876 84.7825C71.2343 84.9842 71.4451 85.1033 71.7201 85.14C71.9951 85.195 72.2976 85.1583 72.6276 85.03C72.9759 84.92 73.2693 84.7275 73.5076 84.4525C73.7459 84.1775 73.8559 83.8842 73.8376 83.5725C73.6726 83.6092 73.5168 83.5908 73.3701 83.5175C73.2051 83.4442 73.0951 83.3158 73.0401 83.1325ZM69.8226 79.42L70.4826 83.2975C70.5743 83.7742 70.5743 84.1683 70.4826 84.48C70.3726 84.81 70.1893 85.0208 69.9326 85.1125C69.8043 85.1675 69.6668 85.14 69.5201 85.03C69.3918 84.92 69.2451 84.6267 69.0801 84.15C68.8968 83.6733 68.7593 83.0683 68.6676 82.335L68.4751 80.8225C68.4568 80.5292 68.4659 80.2908 68.5026 80.1075C68.5576 79.9425 68.6309 79.805 68.7226 79.695C68.8326 79.585 68.9884 79.4933 69.1901 79.42C69.3918 79.3467 69.6026 79.3467 69.8226 79.42ZM57.8876 85.69L57.5301 84.8375C56.9618 83.7008 56.2009 83.3067 55.2476 83.655C55.0093 83.7467 54.7893 83.8658 54.5876 84.0125C54.4043 84.1408 54.2393 84.3058 54.0926 84.5075C54.2943 84.5992 54.4776 84.7367 54.6426 84.92C54.8259 85.1217 54.9909 85.3692 55.1376 85.6625L55.7426 86.8725C55.9993 87.4042 56.4943 88.5958 57.2276 90.4475C57.5026 90.4842 57.9151 90.4017 58.4651 90.2C58.7584 90.09 59.0334 89.8883 59.2901 89.595C59.9501 88.7883 60.2893 87.6792 60.3076 86.2675L61.2976 88.99C61.5176 89.0267 61.8934 88.9442 62.4251 88.7425C62.9751 88.5408 63.4426 88.1467 63.8276 87.56C64.1943 86.9917 64.5243 86.2308 64.8176 85.2775C64.9459 84.8375 65.0651 84.1408 65.1751 83.1875L65.1476 82.0875C65.1293 81.7575 65.0651 81.4458 64.9551 81.1525C64.8451 80.8592 64.6526 80.6667 64.3776 80.575C64.1209 80.5017 63.8459 80.52 63.5526 80.63C63.3143 80.7033 63.1218 80.8133 62.9751 80.96C62.8101 81.1067 62.6909 81.2808 62.6176 81.4825C62.7276 81.6292 62.8376 81.8583 62.9476 82.17C63.0759 82.5183 63.1768 82.9217 63.2501 83.38C63.3051 83.8383 63.3418 84.3333 63.3601 84.865C63.3601 85.9833 63.2134 86.7625 62.9201 87.2025L62.2051 84.975C62.0584 84.5533 61.8201 84.0033 61.4901 83.325C61.2334 82.7933 60.9493 82.4175 60.6376 82.1975C60.4726 82.0875 60.2893 82.0233 60.0876 82.005C59.9043 81.9867 59.7026 82.0233 59.4826 82.115C59.0426 82.2617 58.7034 82.4817 58.4651 82.775L58.6851 83.0225L58.9051 83.435C59.2351 84.315 59.3909 85.3417 59.3726 86.515C59.3726 87.0283 59.3268 87.4867 59.2351 87.89C59.1434 88.2933 59.0151 88.5775 58.8501 88.7425L57.8876 85.69ZM54.4776 88.88C54.3493 88.55 54.1476 88.3025 53.8726 88.1375C53.5976 87.9725 53.1668 87.8167 52.5801 87.67C51.9751 87.56 51.5443 87.45 51.2876 87.34C51.1043 87.2667 50.9759 87.1475 50.9026 86.9825C50.8293 86.7442 50.8476 86.4967 50.9576 86.24C51.0493 86.0017 51.1959 85.8458 51.3976 85.7725C51.8009 85.6258 52.0943 85.8 52.2776 86.295C52.3693 86.5517 52.4059 86.8542 52.3876 87.2025C52.5709 87.2392 52.8001 87.2117 53.0751 87.12C53.4601 86.9733 53.7259 86.7533 53.8726 86.46C54.0193 86.185 54.0284 85.8642 53.9001 85.4975C53.8268 85.3142 53.7259 85.1583 53.5976 85.03C53.4693 84.92 53.3043 84.8467 53.1026 84.81C52.7176 84.7 52.2501 84.7458 51.7001 84.9475C50.6551 85.3325 49.9126 85.8642 49.4726 86.5425C49.2709 86.8542 49.1426 87.2025 49.0876 87.5875C49.0509 87.9725 49.0968 88.33 49.2251 88.66C49.3351 88.99 49.5551 89.2375 49.8851 89.4025C50.0684 89.5125 50.5176 89.65 51.2326 89.815C52.1126 89.9983 52.6259 90.3008 52.7726 90.7225C52.8459 90.9425 52.8368 91.1442 52.7451 91.3275C52.6534 91.4925 52.5068 91.6117 52.3051 91.685C52.0851 91.7767 51.8926 91.7675 51.7276 91.6575C51.5626 91.5658 51.4343 91.3825 51.3426 91.1075C51.2693 90.9242 51.2418 90.6767 51.2601 90.365C50.9851 90.31 50.6734 90.3467 50.3251 90.475C49.9768 90.6033 49.7293 90.805 49.5826 91.08C49.3993 91.3733 49.3718 91.6758 49.5001 91.9875C49.5551 92.1525 49.6559 92.29 49.8026 92.4C49.9676 92.51 50.1784 92.5925 50.4351 92.6475C50.6918 92.7025 50.9576 92.73 51.2326 92.73C51.4893 92.7117 51.7459 92.6567 52.0026 92.565C52.9926 92.1983 53.7168 91.6667 54.1751 90.97C54.3951 90.6583 54.5326 90.3192 54.5876 89.9525C54.6426 89.5858 54.6059 89.2283 54.4776 88.88ZM78.9526 45.43C78.6593 44.6233 78.1001 44.055 77.2751 43.725C76.9451 44.165 76.4776 44.495 75.8726 44.715L72.2151 45.6225C70.4734 45.9708 69.2634 46.2733 68.5851 46.53C67.5034 46.915 66.7426 47.4833 66.3026 48.235C66.0643 48.5833 65.9359 48.9683 65.9176 49.39C65.8809 49.8117 65.9543 50.2608 66.1376 50.7375C66.4859 51.6908 67.0359 52.2958 67.7876 52.5525C67.8059 52.0758 68.3559 51.645 69.4376 51.26L70.9776 50.7925C70.7393 51.7458 70.5651 52.7633 70.4551 53.845C70.3634 54.89 70.3268 55.99 70.3451 57.145C70.3818 58.3 70.4643 59.3175 70.5926 60.1975C70.7393 61.1142 70.9226 61.8842 71.1426 62.5075C71.5459 63.5892 72.1326 64.2858 72.9026 64.5975C73.7093 64.9092 74.5893 64.8908 75.5426 64.5425C76.4959 64.1942 77.2384 63.7542 77.7701 63.2225C78.0268 62.9475 78.2284 62.6267 78.3751 62.26C78.5584 61.9117 78.6868 61.4992 78.7601 61.0225C77.4768 60.3992 76.5051 59.1617 75.8451 57.31C75.1668 55.4767 74.7726 53.075 74.6626 50.105L76.4776 49.665C76.9359 49.5 77.3484 49.2617 77.7151 48.95C78.0634 48.6383 78.3659 48.2717 78.6226 47.85C79.1359 47.025 79.2459 46.2183 78.9526 45.43ZM49.0601 61.4625C49.1151 62.9292 49.4451 64.4783 50.0501 66.11C50.8568 68.3283 52.0393 69.8133 53.5976 70.565C54.3676 70.9317 55.2293 71.1058 56.1826 71.0875C57.1726 71.0692 58.2451 70.8492 59.4001 70.4275C62.3884 69.3458 64.4051 67.4758 65.4501 64.8175C66.4768 62.1042 66.3484 58.9875 65.0651 55.4675C64.2218 53.1575 63.0393 51.6725 61.5176 51.0125C59.9776 50.3158 58.0801 50.38 55.8251 51.205C52.7084 52.3417 50.6551 54.3583 49.6651 57.255C49.2068 58.5567 49.0051 59.9592 49.0601 61.4625ZM56.3476 53.13C56.8609 52.9467 57.2826 53.0108 57.6126 53.3225C57.9243 53.6708 58.1993 54.1567 58.4376 54.78L59.1526 56.925C59.4459 57.7683 59.7484 59.2442 60.0601 61.3525C60.3718 63.8275 60.5001 65.4317 60.4451 66.165C60.4084 66.825 60.2709 67.3383 60.0326 67.705C59.7943 68.0717 59.4093 68.3467 58.8776 68.53C58.3459 68.7317 57.9151 68.6767 57.5851 68.365C57.2368 68.0717 56.9618 67.6317 56.7601 67.045C56.3201 65.8167 55.9351 64.4783 55.6051 63.03C55.3118 61.5633 55.0734 59.9775 54.8901 58.2725C54.6701 56.2742 54.7801 54.8717 55.2201 54.065C55.4584 53.625 55.8343 53.3133 56.3476 53.13ZM38.0326 59.95L38.3076 59.8125L38.9126 59.5925C40.3976 59.0608 41.4151 59.5467 41.9651 61.05C42.2401 61.8017 42.3959 62.4892 42.4326 63.1125C42.4876 63.7358 42.4143 64.3042 42.2126 64.8175C41.8276 65.8258 41.0026 66.5592 39.7376 67.0175C40.0493 67.2008 40.3976 67.3475 40.7826 67.4575C41.6076 67.6958 42.4418 67.6592 43.2851 67.3475C45.1001 66.6875 46.3468 65.6883 47.0251 64.35C47.3734 63.6533 47.5568 62.9292 47.5751 62.1775C47.5934 61.4442 47.4559 60.665 47.1626 59.84C46.0809 56.8517 43.4409 56.1183 39.2426 57.64L36.4101 58.7125C35.3651 59.1158 33.9443 59.7483 32.1476 60.61L35.1176 78.6775L40.7551 76.615L38.0326 59.95ZM71.6101 19.855C71.3168 19.0483 70.7576 18.48 69.9326 18.15C69.6026 18.59 69.1351 18.92 68.5301 19.14L64.8726 20.0475C63.1309 20.3958 61.9209 20.6983 61.2426 20.955C60.1609 21.34 59.4001 21.9083 58.9601 22.66C58.7218 23.0083 58.5934 23.3933 58.5751 23.815C58.5384 24.2367 58.6118 24.6858 58.7951 25.1625C59.1434 26.1158 59.6934 26.7208 60.4451 26.9775C60.4634 26.5008 61.0134 26.07 62.0951 25.685L63.6351 25.2175C63.3968 26.1708 63.2226 27.1883 63.1126 28.27C63.0209 29.315 62.9843 30.415 63.0026 31.57C63.0393 32.725 63.1218 33.7425 63.2501 34.6225C63.3968 35.5392 63.5801 36.3092 63.8001 36.9325C64.2034 38.0142 64.7901 38.7108 65.5601 39.0225C66.3668 39.3342 67.2468 39.3158 68.2001 38.9675C69.1534 38.6192 69.8959 38.1792 70.4276 37.6475C70.6843 37.3725 70.8859 37.0517 71.0326 36.685C71.2159 36.3367 71.3443 35.9242 71.4176 35.4475C70.1343 34.8242 69.1626 33.5867 68.5026 31.735C67.8243 29.9017 67.4301 27.5 67.3201 24.53L69.1351 24.09C69.5934 23.925 70.0059 23.6867 70.3726 23.375C70.7209 23.0633 71.0234 22.6967 71.2801 22.275C71.7934 21.45 71.9034 20.6433 71.6101 19.855ZM54.1476 25.4375C52.6076 24.7408 50.7101 24.805 48.4551 25.63C45.3384 26.7667 43.2851 28.7833 42.2951 31.68C41.8368 32.9817 41.6351 34.3842 41.6901 35.8875C41.7451 37.3542 42.0751 38.9033 42.6801 40.535C43.4868 42.7533 44.6693 44.2383 46.2276 44.99C46.9976 45.3567 47.8593 45.5308 48.8126 45.5125C49.8026 45.4942 50.8751 45.2742 52.0301 44.8525C55.0184 43.7708 57.0351 41.9008 58.0801 39.2425C59.1068 36.5292 58.9784 33.4125 57.6951 29.8925C56.8518 27.5825 55.6693 26.0975 54.1476 25.4375ZM47.8501 28.49C48.0884 28.05 48.4643 27.7383 48.9776 27.555C49.4909 27.3717 49.9126 27.4358 50.2426 27.7475C50.5543 28.0958 50.8293 28.5817 51.0676 29.205L51.7826 31.35C52.0759 32.1933 52.3784 33.6692 52.6901 35.7775C53.0018 38.2525 53.1301 39.8567 53.0751 40.59C53.0384 41.25 52.9009 41.7633 52.6626 42.13C52.4243 42.4967 52.0393 42.7717 51.5076 42.955C50.9759 43.1567 50.5451 43.1017 50.2151 42.79C49.8668 42.4967 49.5918 42.0567 49.3901 41.47C48.9501 40.2417 48.5651 38.9033 48.2351 37.455C47.9418 35.9883 47.7034 34.4025 47.5201 32.6975C47.3001 30.6992 47.4101 29.2967 47.8501 28.49ZM28.5451 33.495L23.1001 35.5025L26.0426 53.735L31.4326 51.7825L30.1676 43.89L33.9901 42.4875C34.3934 45.0908 34.8151 46.9883 35.2551 48.18C35.5118 48.8583 35.9334 49.3625 36.5201 49.6925C36.8318 49.8575 37.1893 49.9308 37.5926 49.9125C37.9959 49.9125 38.4451 49.8208 38.9401 49.6375C39.4534 49.4358 39.9118 49.1792 40.3151 48.8675C40.7368 48.5558 41.1034 48.1708 41.4151 47.7125C41.1218 47.4558 40.8651 47.0342 40.6451 46.4475C40.3884 45.7325 40.1318 44.7608 39.8751 43.5325L37.7576 30.1675L32.2851 32.1475L33.6601 40.2875L29.8376 41.6625L28.5451 33.495Z" fill="white"/>
</svg>
